<?xml version="1.0" encoding="utf-8"?>
<!-- Generator: Adobe Illustrator 16.0.0, SVG Export Plug-In . SVG Version: 6.00 Build 0)  -->
<!DOCTYPE svg PUBLIC "-//W3C//DTD SVG 1.1//EN" "http://www.w3.org/Graphics/SVG/1.1/DTD/svg11.dtd">
<svg version="1.1" id="Layer_1" xmlns="http://www.w3.org/2000/svg" xmlns:xlink="http://www.w3.org/1999/xlink" x="0px" y="0px"
	 width="64px" height="64px" viewBox="0 0 64 64" enable-background="new 0 0 64 64" xml:space="preserve">
<g>
	<g>
		<g>
			<g>
				<path fill="#58BA2B" d="M-48-40v-47h-64v47 M-52-45h-55v-37h55V-45z"/>
			</g>
			<g>
				<path fill="#58BA2B" d="M-64.656-74.929l2.376,1.665l-7.344,9.227l-3.072-1.937c-0.544-0.346-1.271-0.263-1.712,0.202
					l-3.343,3.521l-3.082-5.587c0.455-0.534,0.735-1.203,0.735-1.946c0-1.718-1.473-3.11-3.29-3.11c-1.819,0-3.291,1.392-3.291,3.11
					c0,0.688,0.24,1.317,0.639,1.833l-6.443,10.449l-2.547-3.852c-0.249-0.378-0.678-0.601-1.158-0.582
					c-0.463,0.009-0.891,0.257-1.112,0.646l-6.793,11.795c-0.347,0.606-0.106,1.359,0.53,1.686c0.198,0.106,0.414,0.151,0.628,0.151
					c0.462,0,0.915-0.232,1.154-0.646l5.712-9.922l2.508,3.793c0.245,0.366,0.693,0.618,1.138,0.586
					c0.463-0.011,0.885-0.245,1.12-0.621l7.543-12.238c0.121,0.013,0.244,0.037,0.372,0.037c0.075,0,0.144-0.018,0.217-0.021
					l3.958,7.182c0.2,0.363,0.578,0.61,1.005,0.658c0.426,0.056,0.858-0.094,1.143-0.401l3.858-4.056l3.154,1.994
					c0.584,0.368,1.363,0.239,1.782-0.283l8.106-10.188l2.392,1.677l1.94-9.279L-64.656-74.929z M-83.388-67.915
					c-1.088,0-1.977-0.839-1.977-1.871c0-1.025,0.888-1.863,1.977-1.863c1.089,0,1.973,0.838,1.973,1.863
					C-81.415-68.754-82.298-67.915-83.388-67.915z"/>
			</g>
		</g>
	</g>
</g>
<g>
	<path fill="none" d="M17-62.016v9.61C17-51.511,17.982-51,18.876-51H26v6.925C26-43.185,26.295-42,27.204-42h9.594
		C37.707-42,38-43.185,38-44.075V-51h7.125C46.019-51,47-51.511,47-52.405v-9.61C47-62.91,46.019-63,45.125-63H38v-7.328
		C38-71.222,37.707-72,36.798-72h-9.594C26.295-72,26-71.222,26-70.328V-63h-7.124C17.982-63,17-62.909,17-62.016z"/>
	<path fill="none" d="M43.254-90c-1.015,0-22.197,0-22.197,0s0.006,0.024-0.167,0.024c-0.39,0-0.891,0.172-0.891,0.962
		C20-88.191,20-84,20-82h24v-6.888C44-88.888,44.268-90,43.254-90z"/>
	<path fill="#58BA2B" d="M62.377-82H49.113c0.015-3,0.042-8.088-0.01-8.803c-0.066-0.946-0.167-1.782-1.419-2.965
		c-0.934-0.882-2.279-1.005-2.904-1.005c-0.213,0-0.343,0.006-0.343,0.006s-10.618-0.024-18.152-0.024
		c-3.769,0-6.767,0.004-7.282,0.021c-1.547,0.051-2.445,0.557-3.283,1.648C14.884-92.032,15-90.789,15-90.789V-82H1.625
		C0.728-82,0-81.367,0-80.47v45.973C0-33.6,0.728-33,1.625-33h60.753C63.273-33,64-33.6,64-34.497v-45.974
		C64-81.367,63.272-82,62.377-82z M26-63v-7.328C26-71.222,26.295-72,27.204-72h9.594C37.707-72,38-71.222,38-70.328V-63h7.125
		C46.019-63,47-62.91,47-62.016v9.61C47-51.511,46.019-51,45.125-51H38v6.925C38-43.185,37.707-42,36.798-42h-9.594
		C26.295-42,26-43.185,26-44.075V-51h-7.124C17.982-51,17-51.511,17-52.405v-9.61C17-62.909,17.982-63,18.876-63H26z M20-82
		c0-2,0-6.191,0-7.014c0-0.79,0.501-0.962,0.891-0.962c0.173,0,0.167-0.024,0.167-0.024s21.183,0,22.197,0
		C44.268-90,44-88.888,44-88.888V-82H20z"/>
</g>
<path fill="#58BA2B" d="M186.707-58.125l-0.066-0.003l0.105-0.046l1.177-0.524c-0.069-0.244-0.14-0.486-0.213-0.728
	c-0.23-0.746-0.503-1.474-0.926-2.139l-1.32,0.435l1.003-1.006c-0.633-0.809-1.255-1.646-2.099-2.252l-1.078,0.883l0.57-1.297
	c-0.872-0.532-1.76-1.104-2.768-1.35l-0.686,1.218l0.059-1.41c-0.993-0.222-2.043-0.371-3.062-0.273l-0.2,1.393l-0.451-1.328
	c-1.034,0.042-2.019,0.458-2.967,0.822l0.321,1.376l-0.898-1.067c-0.943,0.437-1.709,1.15-2.473,1.833l0.799,1.171l-1.22-0.67
	c-0.715,0.754-1.176,1.687-1.654,2.601l1.17,0.804l-1.374-0.182c-0.377,0.973-0.515,1.993-0.578,3.027l1.34,0.326l-0.726,0.176
	l-0.614,0.149c0.063,1.034,0.201,2.054,0.578,3.027l1.374-0.182l-1.17,0.804c0.479,0.914,0.939,1.847,1.654,2.601l1.22-0.67
	l-0.798,1.171c0.763,0.683,1.53,1.396,2.472,1.832l0.898-1.067l-0.321,1.377c0.95,0.364,1.936,0.779,2.967,0.821l0.451-1.327
	l0.201,1.393c1.019,0.096,2.068-0.053,3.061-0.274l-0.059-1.41l0.686,1.218c1.01-0.247,1.896-0.818,2.768-1.351l-0.57-1.296
	l1.078,0.883c0.843-0.606,1.465-1.443,2.099-2.253l-1.001-1.006l1.318,0.434c0.561-0.878,0.857-1.87,1.139-2.866l-1.282-0.57
	l1.379-0.075c0.171-1.026,0.171-2.053,0-3.079L186.707-58.125z M182.756-56.337c-0.094,2.543-2.18,4.578-4.746,4.578
	c-2.567,0-4.652-2.034-4.746-4.578c-0.002-0.059-0.009-0.117-0.009-0.176c0-2.626,2.128-4.755,4.755-4.755
	c2.625,0,4.755,2.129,4.755,4.755C182.765-56.454,182.758-56.396,182.756-56.337z M191.368-69.408h-0.947l-0.416-2.309h-3.706
	l-1.231-5.722h-10.869l-3.407,5.722l-0.874,1.468l-3.989,6.703l-0.614,1.03l-1.14-0.368l-7.083-2.291
	c2.322,2.163,3.785,5.237,3.785,8.662c0,0.06-0.008,0.117-0.008,0.176h5.31c-0.001-0.06-0.009-0.117-0.009-0.176
	c0-6.541,5.301-11.841,11.841-11.841c4.936,0,9.163,3.021,10.941,7.314l2.409-3.129l-0.417-2.327h0.424
	c0.35,0,0.632-0.652,0.632-1.455C192-68.756,191.718-69.408,191.368-69.408z M184.199-71.717h-7.4c-0.416,0-0.751-0.336-0.751-0.752
	V-75.4c0-0.415,0.335-0.752,0.751-0.752h6.447c0.415,0,0.823,0.329,0.91,0.735l0.638,2.965
	C184.882-72.045,184.616-71.717,184.199-71.717z M157.665-58.128l1.283-0.57c-0.283-0.995-0.581-1.987-1.14-2.866l-1.319,0.434
	l1.001-1.006c-0.633-0.809-1.255-1.646-2.098-2.252l-1.079,0.883l0.571-1.296c-0.871-0.533-1.759-1.104-2.766-1.351l-0.688,1.218
	l0.06-1.41c-0.995-0.222-2.043-0.371-3.062-0.273l-0.199,1.393l-0.451-1.328c-1.033,0.042-2.018,0.458-2.968,0.822l0.323,1.376
	l-0.898-1.067c-0.943,0.437-1.709,1.15-2.473,1.833l0.799,1.171l-0.841-0.461l-0.378-0.208c-0.717,0.754-1.175,1.687-1.654,2.601
	l1.169,0.804l-1.374-0.182c-0.377,0.973-0.515,1.993-0.577,3.027l1.338,0.326l-1.338,0.325c0.062,1.034,0.2,2.054,0.577,3.027
	l1.374-0.182l-1.169,0.804c0.479,0.914,0.939,1.847,1.654,2.601l1.219-0.669l-0.799,1.171c0.764,0.683,1.53,1.396,2.473,1.832
	l0.898-1.067l-0.321,1.377c0.948,0.364,1.934,0.779,2.966,0.821l0.451-1.327l0.199,1.393c1.02,0.096,2.069-0.053,3.063-0.274
	l-0.06-1.41l0.688,1.218c1.007-0.247,1.896-0.818,2.768-1.351l-0.571-1.296l1.078,0.883c0.842-0.606,1.465-1.443,2.098-2.253
	l-1.001-1.006l1.319,0.434c0.559-0.878,0.857-1.87,1.14-2.866l-1.283-0.57l1.379-0.075c0.077-0.454,0.112-0.908,0.121-1.362
	c0.012-0.572-0.025-1.144-0.121-1.717L157.665-58.128z M153.781-56.337c-0.095,2.543-2.179,4.578-4.746,4.578
	c-2.567,0-4.652-2.034-4.747-4.578c-0.001-0.059-0.009-0.117-0.009-0.176c0-2.626,2.129-4.755,4.756-4.755
	c2.625,0,4.755,2.129,4.755,4.755C153.79-56.454,153.783-56.396,153.781-56.337z M141.718-65.812
	c1.651-1.301,3.654-2.17,5.844-2.442l-5.844-1.889V-65.812z M149.035-59.717c-1.769,0-3.204,1.434-3.204,3.204
	c0,0.06,0.014,0.117,0.018,0.176c0.094,1.686,1.478,3.027,3.187,3.027c1.709,0,3.092-1.341,3.187-3.027
	c0.003-0.06,0.017-0.116,0.017-0.176C152.239-58.283,150.804-59.717,149.035-59.717z M164.638-64.314l4.405-7.403l0.388-0.65
	l3.262-5.481l0.65-1.094h18.017v-2.68h-59.912L128-76.156l13.736,4.439L164.638-64.314z M163.352-79.485l-4.269,7.768l-1.578,2.871
	l-1.637-0.467l1.382-2.403l4.465-7.768H163.352z M157.835-79.485l-4.294,7.768l-0.743,1.343l-1.6-0.456l0.512-0.887l4.489-7.768
	H157.835z M152.32-79.485l-4.23,7.583l-1.563-0.443l4.157-7.139H152.32z M145.168-79.485h1.637l-3.424,6.055l-1.525-0.43
	L145.168-79.485z M133.966-76.486l-1.452-0.406l1.623-2.593h1.636L133.966-76.486z M138.673-74.958l-1.489-0.419l2.469-4.108h1.636
	L138.673-74.958z M178.01-59.717c-1.77,0-3.204,1.434-3.204,3.204c0,0.06,0.015,0.117,0.019,0.176
	c0.093,1.686,1.475,3.027,3.185,3.027s3.092-1.341,3.187-3.027c0.002-0.06,0.018-0.116,0.018-0.176
	C181.214-58.283,179.78-59.717,178.01-59.717z"/>
<g>
	<g>
		<g>
			<g>
				<path fill="#58BA2B" d="M316.436-46.502l-10.838-3.366v-11.729c0-1.321-1.074-2.402-2.402-2.402
					c-1.328,0-2.402,1.081-2.402,2.402v16.864l-2.225-3.851c-0.657-1.145-2.129-1.542-3.28-0.876
					c-1.146,0.661-1.538,2.132-0.876,3.277l7.501,12.996c0.442,0.763,1.244,1.188,2.07,1.188h11.118c1.021,0,1.928-0.64,2.265-1.604
					l2.382-6.747c0.163-0.478,0.251-0.987,0.251-1.521C320-44.091,318.486-45.954,316.436-46.502z"/>
			</g>
			<path fill="#58BA2B" d="M293.105-40.771c-1.185,1.156-2.472,1.928-3.825,2.227v-15.215h7.673v-2.56h-7.673v-15.361h10.322
				c0.224,1.514,0.377,3.092,0.468,4.71c0.755-0.441,1.603-0.719,2.517-0.809c-0.09-1.334-0.22-2.637-0.395-3.902h10.225
				c0.767,2.426,1.18,5.007,1.18,7.681c0,2.675-0.413,5.254-1.18,7.681h-2.981v2.56h2.011c-0.221,0.5-0.488,0.974-0.735,1.457
				l6.239,1.938C318.904-54.502,320-59.121,320-64c0-17.673-14.327-32-32-32s-32,14.327-32,32c0,17.674,14.327,32,32,32
				c3.26,0,6.401-0.49,9.364-1.395L293.105-40.771z M311.449-74.239h-9.677c-1.178-6.123-3.399-11.101-6.308-14.243
				C302.636-86.29,308.469-81.031,311.449-74.239z M289.281-89.455c4.43,0.976,8.148,6.962,9.861,15.216h-9.861V-89.455z
				 M280.536-88.481c-2.907,3.142-5.131,8.12-6.304,14.243h-9.679C267.531-81.031,273.365-86.29,280.536-88.481z M262.399-64
				c0-2.674,0.417-5.254,1.182-7.681h10.227c-0.334,2.431-0.526,4.993-0.526,7.681s0.191,5.254,0.526,7.681h-10.227
				C262.817-58.746,262.399-61.325,262.399-64z M264.553-53.759h9.679c1.178,6.121,3.397,11.103,6.304,14.243
				C273.365-41.708,267.531-46.969,264.553-53.759z M286.721-38.544c-4.432-0.976-8.148-6.96-9.863-15.215h9.863V-38.544z
				 M286.721-56.319h-10.321c-0.361-2.423-0.561-5.003-0.561-7.681s0.196-5.254,0.561-7.681h10.321V-56.319z M286.721-74.239h-9.863
				c1.714-8.254,5.431-14.24,9.863-15.216V-74.239z"/>
		</g>
	</g>
</g>
<g>
	<g>
		<path fill="#58BA2B" d="M-71.582,55.115c0-0.686-0.562-1.246-1.247-1.246h-14.345c-0.685,0-1.245,0.561-1.245,1.246l0,0
			c0,0.684,0.56,1.245,1.245,1.245h14.345C-72.144,56.36-71.582,55.799-71.582,55.115L-71.582,55.115z"/>
		<path fill="#58BA2B" d="M-80,10.762c0.685,0,1.246-0.56,1.246-1.246V1.498c0-0.685-0.561-1.246-1.246-1.246l0,0
			c-0.685,0-1.246,0.561-1.246,1.246v8.019C-81.246,10.202-80.685,10.762-80,10.762L-80,10.762z"/>
		<path fill="#58BA2B" d="M-69.255,13.641c0.594,0.342,1.359,0.138,1.702-0.456l4.008-6.943C-63.202,5.647-63.407,4.883-64,4.54l0,0
			c-0.593-0.342-1.358-0.137-1.701,0.456l-4.009,6.943C-70.053,12.533-69.847,13.299-69.255,13.641L-69.255,13.641z"/>
		<path fill="#58BA2B" d="M-61.389,21.509c0.343,0.592,1.109,0.797,1.702,0.455l6.943-4.011c0.594-0.342,0.799-1.106,0.456-1.699
			l0,0c-0.343-0.594-1.109-0.799-1.701-0.456l-6.944,4.009C-61.526,20.148-61.73,20.914-61.389,21.509L-61.389,21.509z"/>
		<path fill="#58BA2B" d="M-58.508,32.253c0,0.687,0.561,1.247,1.244,1.246h8.02c0.685,0,1.245-0.56,1.245-1.246l0,0
			c0-0.684-0.561-1.245-1.245-1.245h-8.02C-57.95,31.008-58.508,31.569-58.508,32.253L-58.508,32.253z"/>
		<path fill="#58BA2B" d="M-90.746,13.641c0.593-0.342,0.799-1.107,0.457-1.701l-4.01-6.944c-0.343-0.592-1.107-0.797-1.702-0.455
			l0,0c-0.593,0.343-0.797,1.107-0.455,1.701l4.009,6.943C-92.104,13.778-91.339,13.982-90.746,13.641L-90.746,13.641z"/>
		<path fill="#58BA2B" d="M-98.612,21.509c0.343-0.595,0.138-1.36-0.455-1.702l-6.945-4.01c-0.593-0.342-1.358-0.137-1.702,0.455
			l0,0c-0.341,0.595-0.135,1.358,0.458,1.701l6.944,4.01C-99.719,22.305-98.955,22.1-98.612,21.509L-98.612,21.509z"/>
		<path fill="#58BA2B" d="M-101.492,32.253c0-0.686-0.56-1.245-1.244-1.246h-8.019c-0.685,0.001-1.246,0.561-1.246,1.246l0,0
			c0,0.685,0.561,1.246,1.246,1.246h8.019C-102.051,33.499-101.492,32.938-101.492,32.253L-101.492,32.253z"/>
		<path fill="#58BA2B" d="M-71.582,58.534c0-0.686-0.562-1.245-1.247-1.245h-14.345c-0.685,0-1.245,0.56-1.245,1.245l0,0
			c0,0.686,0.56,1.245,1.245,1.245h14.345C-72.144,59.779-71.582,59.22-71.582,58.534L-71.582,58.534z"/>
		<path fill="#58BA2B" d="M-84.206,60.708c0.584,1.766,2.246,3.04,4.206,3.04c1.96,0,3.62-1.274,4.205-3.04H-84.206z"/>
		<path fill="#58BA2B" d="M-80,14.721c-9.683,0-17.532,7.851-17.532,17.532c0,5.146,2.219,9.778,5.754,12.985
			c0.007,0.005,0.527,0.442,0.78,0.662c1.662,1.443,2.582,3.67,2.582,6.044h16.831c0-2.374,0.922-4.601,2.583-6.044
			c0.253-0.22,0.773-0.657,0.781-0.662c3.534-3.207,5.753-7.839,5.753-12.985C-62.468,22.571-70.318,14.721-80,14.721z
			 M-78.781,40.539v1.566c0,0.306-0.117,0.612-0.35,0.847c-0.234,0.232-0.54,0.349-0.846,0.349h-0.264
			c-0.306,0-0.612-0.115-0.844-0.349c-0.233-0.234-0.351-0.541-0.351-0.847v-1.376c-1.814-0.081-3.574-0.568-4.603-1.165
			l0.812-3.168c1.138,0.623,2.735,1.191,4.497,1.191c1.542,0,2.599-0.595,2.599-1.68c0-1.028-0.866-1.678-2.871-2.354
			c-2.897-0.976-4.875-2.329-4.875-4.956c0-2.384,1.68-4.253,4.577-4.821v-1.377c0-0.306,0.116-0.612,0.35-0.844
			c0.234-0.233,0.539-0.35,0.845-0.35h0.264c0.306,0,0.61,0.116,0.846,0.35c0.233,0.231,0.35,0.538,0.35,0.844v1.188
			c1.814,0.081,3.033,0.46,3.926,0.894l-0.785,3.061c-0.704-0.299-1.949-0.921-3.9-0.921c-1.761,0-2.329,0.759-2.329,1.516
			c0,0.894,0.948,1.463,3.25,2.329c3.223,1.138,4.522,2.626,4.522,5.064C-73.961,37.939-75.668,39.999-78.781,40.539z"/>
	</g>
</g>
<g>
	<g>
		<polygon fill="#58BA2B" points="49.006,3.217 18.776,17.498 55.833,17.498 		"/>
		<path fill="#58BA2B" d="M46.372,46.534c-3.423,0-6.196-2.776-6.196-6.199c0-3.42,2.773-6.194,6.196-6.194H64V22.322
			c0-1.106-0.899-2.005-2.004-2.005c-98.295,0,60.234,0-54.837,0c-1.737,0-3.149-1.41-3.149-3.146c0-1.737,1.413-3.149,3.149-3.149
			h11.94l8.485-4.008H7.159C3.212,10.013,0,13.223,0,17.17v36.454c0,3.946,3.212,7.158,7.159,7.158h54.837
			c1.105,0,2.004-0.899,2.004-2.006V46.534H46.372z"/>
		<circle fill="#58BA2B" cx="46.372" cy="40.336" r="3.036"/>
	</g>
</g>
<g>
	<g>
		<polygon fill="#58BA2B" points="116.583,37.296 112,41.875 118.576,45.56 125.223,38.914 		"/>
		<polygon fill="#58BA2B" points="151.017,13.117 119.882,6.136 112.708,13.312 136.941,27.193 		"/>
		<path fill="#58BA2B" d="M175.988,0.012c0,0-5.912-0.686-14.711,8.112L121.74,47.333l4.436,2.485L134.118,64l4.583-4.586
			l-2.444-13.076l10.63-10.627l15.802,27.579l7.174-7.175l-7.949-35.435l5.958-5.96C176.669,5.925,175.988,0.012,175.988,0.012z"/>
	</g>
</g>
<g id="_x31__54_">
	<g>
		<path fill="#58BA2B" d="M287.999,25.6c-3.503,0-6.345,2.867-6.345,6.4c0,3.536,2.842,6.4,6.345,6.4c3.505,0,6.348-2.865,6.348-6.4
			C294.347,28.467,291.504,25.6,287.999,25.6z M317.884,39.543l-4.953-2.885c0.274-1.515,0.456-3.06,0.456-4.658
			c0-1.596-0.181-3.144-0.456-4.658l4.953-2.886c2.025-1.176,2.717-3.787,1.547-5.827l-4.233-7.392
			c-1.164-2.04-3.752-2.74-5.777-1.561l-5.008,2.913c-2.338-2.006-4.998-3.646-7.952-4.703V4.266c0-2.356-1.894-4.267-4.231-4.267
			h-8.462c-2.337,0-4.231,1.911-4.231,4.267v3.621c-2.953,1.057-5.61,2.696-7.953,4.703l-5.003-2.913
			c-2.025-1.18-4.613-0.479-5.782,1.561l-4.23,7.392c-1.167,2.04-0.476,4.65,1.549,5.827l4.955,2.886
			c-0.279,1.514-0.459,3.062-0.459,4.658c0,1.598,0.18,3.144,0.459,4.658l-4.955,2.885c-2.025,1.177-2.716,3.788-1.549,5.828
			l4.23,7.392c1.169,2.039,3.757,2.74,5.782,1.562l5.003-2.913c2.342,2.006,5,3.648,7.953,4.702v3.62
			c0,2.356,1.895,4.267,4.231,4.267h8.462c2.338,0,4.231-1.91,4.231-4.267v-3.62c2.955-1.054,5.614-2.696,7.952-4.702l5.008,2.913
			c2.024,1.179,4.613,0.478,5.777-1.562l4.233-7.392C320.601,43.331,319.909,40.721,317.884,39.543z M287.999,42.667
			c-5.841,0-10.579-4.775-10.579-10.667s4.738-10.667,10.579-10.667c5.843,0,10.581,4.775,10.581,10.667
			S293.842,42.667,287.999,42.667z"/>
	</g>
</g>
</svg>
