<svg xmlns="http://www.w3.org/2000/svg" width="195.393" height="43.195" viewBox="0 0 195.393 43.195"><path d="M84.278 23.969c-.165-3.1-.363-6.826-.33-9.596h-.099c-.758 2.605-1.682 5.375-2.803 8.442l-3.924 10.782h-2.176l-3.594-10.585c-1.055-3.132-1.945-6.001-2.572-8.639h-.066a296.97 296.97 0 0 1-.429 9.827l-.593 9.529h-2.737l1.55-22.225h3.66l3.792 10.75c.923 2.737 1.682 5.177 2.242 7.485h.099c.561-2.242 1.352-4.682 2.341-7.485l3.957-10.75h3.66l1.385 22.225h-2.803l-.56-9.76zm12.726 9.76v-9.431l-7.023-12.794h3.265l3.132 6.133a94.87 94.87 0 0 1 2.209 4.583h.066c.626-1.451 1.385-2.902 2.242-4.583l3.199-6.133h3.264l-7.452 12.762v9.463h-2.902z"/><path fill="#58BA2B" d="M116.885 11.504h2.869v19.817h9.496v2.407h-12.365V11.504zm33.271 10.881c0 7.65-4.649 11.707-10.321 11.707-5.869 0-9.99-4.551-9.99-11.277 0-7.057 4.385-11.673 10.32-11.673 6.067-.001 9.991 4.649 9.991 11.243zm-17.245.363c0 4.748 2.572 9.002 7.09 9.002 4.55 0 7.122-4.188 7.122-9.232 0-4.419-2.309-9.035-7.09-9.035-4.748-.001-7.122 4.385-7.122 9.265zm37.885 9.991c-1.286.462-3.825 1.22-6.825 1.22-3.363 0-6.134-.857-8.311-2.935-1.912-1.847-3.1-4.813-3.1-8.276.033-6.628 4.584-11.475 12.036-11.475 2.571 0 4.583.561 5.54 1.022l-.693 2.341c-1.187-.527-2.67-.956-4.912-.956-5.408 0-8.937 3.363-8.937 8.936 0 5.639 3.396 8.969 8.573 8.969 1.879 0 3.166-.264 3.825-.593v-6.629h-4.518v-2.308h7.32v10.684zm23.378-10.354c0 7.65-4.65 11.707-10.321 11.707-5.869 0-9.991-4.551-9.991-11.277 0-7.057 4.386-11.673 10.32-11.673 6.068-.001 9.992 4.649 9.992 11.243zm-17.246.363c0 4.748 2.572 9.002 7.09 9.002 4.551 0 7.122-4.188 7.122-9.232 0-4.419-2.308-9.035-7.089-9.035-4.748-.001-7.123 4.385-7.123 9.265z"/><path fill="#fff" d="M26.905.67C24.28.174 17.215 1.81 9.723 4.648l-.036-.003.011-.021.01-.021.01-.021.011-.021.011-.021.011-.021.012-.021C15.557 1.074 19.399.106 20.288.038L21.2.002c1.298.019 2.525.036 4.303.357l1.466.326-.064-.015m12.514 8.791c-1.792-1.608-11.955-.486-30.03 5.779l-.105-.004-.009-.039-.007-.039-.009-.039-.007-.039-.009-.039-.007-.039-.007-.039C20.26 7.829 32.82 3.5 34.862 4.563c1.541 1.297 2.996 2.522 4.697 5.058l-.14-.16m3.51 15.426c.038-1.926-7.329-2.324-27.782 4.471l-.125-.004-.024-.039-.024-.038-.023-.038-.024-.039-.022-.037-.023-.039-.024-.038C26.521 21.15 42.173 15.769 42.864 17.9c.115.857.248 2.003.305 2.865-.002 2.087-.002 2.407-.26 4.257l.02-.135"/><path fill="#333" d="M5.623 36.068l.031.031.03.033.03.033.032.033.03.032.032.032.031.033c.094.136.211.324.325.443l-.567-.598-.005-.104.031.032"/><path fill="#fff" d="M35.263 38.309c.851-.805.552-1.27-.838-1.307-1.957-.053-5.518.712-10.583 2.271l-.083-.002-.026-.018-.027-.02-.025-.02-.027-.018-.027-.02-.026-.018-.027-.02c6.109-4.578 16.437-8.114 16.571-6.665.009.114-.067.261-.118.363-1.039 1.583-1.561 2.378-3.245 4.114-1.038.977-1.1 1.035-1.813 1.604l.294-.244"/><path fill="#333" d="M18.809 42.754l.043.005.045.006.044.005.044.006.044.004.045.005.045.005c.478.257.819.357 1.785.406a47.287 47.287 0 0 1-2.227-.187l-.084-.024-.019-.049c.072-.1.074-.104.188-.188l.047.006"/><path d="M5.016 8.071l-.029.034-.03.035-.028.034-.029.035-.028.035-.029.034-.027.034c-.736 3.966 14.763-.749 20.924-4.874 1.46-.977 2.857-2.248 1.229-2.753L25.503.359C24.266.171 22.988-.023 21.2.002l-.912.036c.399-.014.42.002.614.149-.007.204-.016.458-.963 1.144C16.262 4.01 7.196 7.711 5.057 8.035l-.041.036M0 21.929v.044l.001.044v.089l.001.045.001.044v.045c2.283 7.274 36.536-6.632 39.403-11.292.467-.76.262-1.129.152-1.328-1.236-1.707-2.302-3.181-4.697-5.058.186.251.619.841-2.096 2.826C23.553 14.044 3.508 21.76.146 21.931L0 21.929M6.164 36.74c5.451 4.411 35.236-6.871 36.745-11.719.246-2.02.292-2.383.26-4.257a48.29 48.29 0 0 0-.305-2.865c-.096.508-.214 1.14-2.473 2.797C30.166 28.061 7.454 36.715 5.597 36.14l.567.6m14.742 6.455c4.63-.007 11.614-2.775 14.063-4.638 1.042-.866 1.151-.956 1.813-1.604 1.375-1.459 1.984-2.131 3.245-4.114-.278.362-.499.649-1.365 1.288-6.263 4.489-18.562 8.982-19.983 8.882.667.069 1.557.17 2.227.186" fill="#58BA2B"/></svg>